# xmcd CD database file
#
# Track frame offsets:
#	182
#	11650
#	22755
#	34157
#	45455
#	56180
#	67620
#	84332
#	95965
#	107207
#	117880
#	128357
#	139440
#	151832
#	163607
#	177380
#	188132
#	198482
#	208907
#	218282
#	229382
#	241157
#
# Disc length: 3351 seconds
#
# Revision: 3
# Processed by: cddbd v1.5.2PL0 Copyright (c) Steve Scherf et al.
# Submitted via: CDex 1.72
#
DISCID=280d1516
DTITLE=Wills, Bob, and The Texas Playboys (USA-73-Hall Of Fame-cty) - Hall Of Fame (DCC)
DYEAR=1973
DGENRE=Country
TTITLE0=Playboy Medley
TTITLE1=My Confession
TTITLE2=Blues In ''A''
TTITLE3=Silver Bells
TTITLE4=Will You Miss Me When I'm Gone?
TTITLE5=The Jobob Rag
TTITLE6=Sittin' On Top Of The World
TTITLE7=Boot Heel Rag
TTITLE8=Yearning
TTITLE9=Ida Red Likes The Boogie
TTITLE10=Stay A Little Longer
TTITLE11=It Makes No Difference Now
TTITLE12=Wabash Blues
TTITLE13=Take Me Back To Tulsa
TTITLE14=The Kind Of Love I Can't Forget 
TTITLE15=Li'l Liza Jane
TTITLE16=A Maiden's Prayer
TTITLE17=Blues For Dixie
TTITLE18=Bubbles In My Beer
TTITLE19=Hang Your Head In Shame
TTITLE20=Time Changes Everything
TTITLE21=San Antonio Rose
EXTD=Hall Of Fame (DCC]\nBob Wills and The Texas Playboys\n\nOriginally Released 1973\nDCC CD Edition Released April 4, 2000\n\nAMG EXPERT REVIEW: Hall of Fame collects 22 songs from Bob Wills and His Texas Playboy's Liberty years, and includes Billboard cha
EXTD=rt hits like "San Antonio Rose," "Stay a Little Longer," "Hang Your Head in Shame," "Bubbles in My Beer," and "Ida Red Likes the Boogie." A good collection of the group's late-'50s/early-'60s recordings.  -- Heather Phares\n\nAmazon.com Editorial Re
EXTD=view\nThis collection, originally a 1973 two-LP set, was among the first Bob Wills reissues to exploit the renewed interest in his music, drawing from his 1960-to-'63 recordings for Liberty Records. Despite the fact that Western swing's popularity h
EXTD=ad bottomed out during that era, Wills had his strongest Texas Playboy lineup in years, centered around veteran fiddler Joe Holley, steel guitarist Gene Crownover, and guitarist Leon Rausch. Of greater significance was the fact that he'd reunited wi
EXTD=th original vocalist Tommy Duncan, whom he'd fired in 1948. Though omitting Wills's final, honky-tonk-oriented hit singles with Liberty, the set offers up respectable remakes of 1930s and 1940s Wills favorites like "My Confession," "Boot Heel Rag," 
EXTD="Time Changes Everything," "Stay a Little Longer," "San Antonio Rose," and "Blues for Dixie." Wills and Duncan resumed their old patter as if they'd never stopped (Bob nearly breaks him up on "Bubbles in My Beer"). With excellent playing and a coupl
EXTD=e of rough-hewn Wills vocals, the set reflects the best of his autumnal years, before failing health and musical malaise set in. --Rich Kienzle \n\nAMAZON.COM CUSTOMER REVIEW\nONE OF THE BEST, July 18, 2000\nReviewer: Jim Manning (Garland, TX]\nOne 
EXTD=of the first Bob Wills, albums I bought as a kid. This album introduces the listner to several of the great Bob Wills classics. You also get to hear the singing of the great Tommy Duncan. If you are not a western swing fan before, you will be after 
EXTD=listening to this CD.\n\nHalf.com Details \nContributing artists: Tommy Duncan \n\nAlbum Notes\nIncludes recordings originally released on Liberty Records.\n\nBob Wills and His Texas Playboys: Bob Wills, Tommy Duncan, Everett Stover, Charlie Laughton,
EXTD=Zeb McNally, Herman Arnspiger, C.H. "Sleepy" Johnson, Johnnie Lee Wills, Jesse Ashlock, Joe Ferguson, Leon McAuliffe, William Eschol "Smokey" Dacus, Al Stricklin, Eldon Shamblin.\n\nRecorded in the 1950's and 1960's. \nIncludes liner notes by John Mc
EXTD=Euen. YEAR: 1973
EXTT0=
EXTT1=
EXTT2=
EXTT3=
EXTT4=
EXTT5=
EXTT6=
EXTT7=
EXTT8=
EXTT9=
EXTT10=
EXTT11=
EXTT12=
EXTT13=
EXTT14=
EXTT15=
EXTT16=
EXTT17=
EXTT18=
EXTT19=
EXTT20=
EXTT21=
PLAYORDER=
